<svg width="124" height="32" viewBox="0 0 124 32" fill="none" xmlns="http://www.w3.org/2000/svg">
<path d="M16.9435 19.8533L19.5858 7.9303H23.226L18.6944 25.201H15.623L12.0593 13.3414L8.55758 25.201H5.48558L0.938965 7.9303H4.57913L7.26713 19.726L10.6768 7.9303H13.4875L16.9435 19.8533ZM31.7824 25.5196C29.417 25.5196 27.497 24.7483 26.0224 23.2049C24.5582 21.652 23.8262 19.5878 23.8262 17.0123V16.5337C23.8262 14.8099 24.1435 13.2726 24.7783 11.9205C25.4235 10.5589 26.3248 9.49956 27.482 8.74454C28.6386 7.98885 29.929 7.611 31.352 7.611C33.6149 7.611 35.3612 8.36125 36.5896 9.86175C37.8291 11.3622 38.4482 13.485 38.4482 16.23V17.7945H27.5891C27.7014 19.2201 28.1573 20.3482 28.9559 21.1781C29.7651 22.0087 30.7786 22.4233 31.9973 22.4233C33.7076 22.4233 35.0999 21.7051 36.1749 20.2686L38.187 22.2633C37.5215 23.2961 36.6307 24.0995 35.5146 24.6734C34.409 25.2385 33.1649 25.5196 31.7824 25.5196ZM31.337 10.7237C30.313 10.7237 29.4836 11.0961 28.8488 11.8409C28.2239 12.5857 27.8248 13.6232 27.6505 14.9535H34.7623V14.6662C34.68 13.3679 34.3476 12.3889 33.7631 11.7292C33.1799 11.0586 32.3708 10.7237 31.337 10.7237ZM55.3135 16.7413C55.3135 19.4223 54.7355 21.556 53.5783 23.1416C52.4315 24.7272 50.8492 25.5196 48.8319 25.5196C46.8864 25.5196 45.3706 24.7912 44.2859 23.3329L44.1011 25.201H40.7222V0.683105H44.4544V9.58943C45.53 8.27002 46.9785 7.61032 48.8012 7.61032C50.8289 7.61032 52.4211 8.39257 53.5783 9.95638C54.7355 11.5209 55.3135 13.7076 55.3135 16.5166V16.7413ZM51.5813 16.4057C51.5813 14.5334 51.2639 13.1283 50.6291 12.1915C49.9943 11.2554 49.0728 10.7876 47.8647 10.7876C46.2464 10.7876 45.1101 11.5216 44.4544 12.9901V20.1086C45.1205 21.6091 46.2673 22.3593 47.8954 22.3593C49.0624 22.3593 49.9636 21.9073 50.599 21.0025C51.2332 20.0984 51.561 18.7306 51.5813 16.9006V16.4057ZM66.2124 11.4739C65.7097 11.3877 65.201 11.3449 64.6915 11.3459C62.9817 11.3459 61.8297 12.0267 61.2361 13.389V25.201H57.5039V7.9303H61.067L61.159 9.86175C62.0603 8.36125 63.3096 7.611 64.907 7.611C65.4392 7.611 65.88 7.68589 66.2281 7.83431L66.2124 11.4739ZM71.9117 25.201H68.1788V7.9303H71.9117V25.201ZM67.9489 3.44514C67.9489 2.84943 68.1279 2.35449 68.4864 1.96098C68.8547 1.56679 69.3772 1.37004 70.0531 1.37004C70.729 1.37004 71.2508 1.56747 71.6198 1.96098C71.9881 2.35449 72.1723 2.84943 72.1723 3.44514C72.1723 4.03064 71.9881 4.52014 71.6198 4.91364C71.2508 5.29694 70.729 5.48824 70.0531 5.48824C69.3772 5.48824 68.8547 5.29694 68.4864 4.91364C68.1279 4.52014 67.9489 4.03064 67.9489 3.44514ZM74.6617 16.4377C74.6617 13.7778 75.2554 11.6441 76.4433 10.0374C77.6312 8.4198 79.2234 7.611 81.2198 7.611C82.9811 7.611 84.4048 8.2496 85.4902 9.52611V0.684467H89.2224V25.2017H85.8435L85.6586 23.4139C84.5426 24.8184 83.0529 25.5203 81.1891 25.5203C79.2436 25.5203 77.6665 24.7068 76.4583 23.0783C75.2606 21.4505 74.6617 19.2365 74.6617 16.4377ZM78.394 16.7733C78.394 18.5284 78.7166 19.9016 79.3612 20.8908C80.0168 21.8698 80.9435 22.3593 82.1413 22.3593C83.6675 22.3593 84.7835 21.6513 85.4902 20.2366V12.8627C84.8038 11.4793 83.6982 10.7876 82.1726 10.7876C80.9638 10.7876 80.0319 11.2874 79.3768 12.2881C78.7212 13.2774 78.394 14.7731 78.394 16.7733ZM91.5192 16.4377C91.5192 13.756 92.124 11.6176 93.3321 10.0211C94.5507 8.41435 96.1631 7.611 98.17 7.611C100.065 7.611 101.554 8.29725 102.64 9.67044L102.809 7.9303H106.173V24.6741C106.173 26.9405 105.491 28.7283 104.13 30.0368C102.778 31.346 100.95 32.0002 98.6461 32.0002C97.4281 32.0002 96.235 31.7347 95.0673 31.2023C93.9107 30.6808 93.0297 29.9946 92.4257 29.1429L94.1922 26.8125C95.339 28.2286 96.7522 28.9359 98.4312 28.9359C99.6701 28.9359 100.648 28.5846 101.365 27.882C102.082 27.1903 102.44 26.1691 102.44 24.8177V23.6522C101.365 24.8974 99.9313 25.5196 98.1393 25.5196C96.1938 25.5196 94.6017 24.7163 93.3628 23.1096C92.1338 21.5029 91.5192 19.2787 91.5192 16.4377ZM95.2364 16.7733C95.2364 18.5073 95.5747 19.8751 96.25 20.8752C96.9364 21.8644 97.8833 22.3593 99.0921 22.3593C100.597 22.3593 101.714 21.6894 102.44 20.3482V12.7504C101.734 11.4419 100.627 10.7876 99.1228 10.7876C97.8937 10.7876 96.9364 11.2928 96.25 12.3038C95.5747 13.3148 95.2364 14.8044 95.2364 16.7733ZM116.396 25.5196C114.03 25.5196 112.11 24.7483 110.636 23.2049C109.171 21.652 108.439 19.5878 108.439 17.0123V16.5337C108.439 14.8099 108.757 13.2726 109.392 11.9205C110.037 10.5589 110.937 9.49956 112.095 8.74454C113.252 7.98885 114.542 7.611 115.965 7.611C118.228 7.611 119.974 8.36125 121.203 9.86175C122.442 11.3622 123.061 13.485 123.061 16.23V17.7945H112.202C112.315 19.2201 112.77 20.3482 113.569 21.1781C114.378 22.0087 115.392 22.4233 116.61 22.4233C118.32 22.4233 119.713 21.7051 120.788 20.2686L122.8 22.2633C122.135 23.2961 121.244 24.0995 120.128 24.6734C119.022 25.2385 117.778 25.5196 116.396 25.5196ZM115.95 10.7237C114.926 10.7237 114.097 11.0961 113.461 11.8409C112.837 12.5857 112.437 13.6232 112.264 14.9535H119.375V14.6662C119.293 13.3679 118.96 12.3889 118.377 11.7292C117.793 11.0586 116.984 10.7237 115.95 10.7237Z" fill="white"/>
<path d="M73.0065 3.06432C73.0059 3.46741 72.9295 3.86645 72.7816 4.23865C72.6336 4.61085 72.417 4.94891 72.1442 5.23353C71.8713 5.51815 71.5475 5.74375 71.1913 5.89745C70.835 6.05115 70.4534 6.12994 70.068 6.12931C69.6826 6.12994 69.3009 6.05116 68.9447 5.89746C68.5884 5.74377 68.2646 5.51818 67.9916 5.23357C67.7187 4.94896 67.5021 4.6109 67.354 4.2387C67.206 3.8665 67.1295 3.46744 67.1289 3.06432C67.1303 2.25028 67.4407 1.47016 67.9919 0.895504C68.543 0.320853 69.2898 -0.00126132 70.068 3.71203e-06C70.4533 -0.000622608 70.8349 0.0781414 71.1911 0.231799C71.5473 0.385456 71.8711 0.610997 72.1439 0.895545C72.4168 1.18009 72.6334 1.51808 72.7814 1.89019C72.9294 2.26231 73.0059 2.66128 73.0065 3.06432Z" fill="#3CBE14"/>
</svg>
