<svg width="124" height="32" viewBox="0 0 124 32" fill="none" xmlns="http://www.w3.org/2000/svg">
<g clip-path="url(#clip0_411_985)">
<path d="M16.9434 20.3508L19.5856 8.91375H23.2258L18.6942 25.4806H15.6229L12.0591 14.1043L8.55739 25.4806H5.48539L0.938782 8.91375H4.57895L7.26695 20.2287L10.6766 8.91375H13.4874L16.9434 20.3508ZM31.7822 25.7862C29.4168 25.7862 27.4968 25.0463 26.0222 23.5658C24.558 22.0762 23.826 20.0961 23.826 17.6256V17.1665C23.826 15.5129 24.1434 14.0383 24.7781 12.7413C25.4234 11.4352 26.3246 10.4191 27.4818 9.69481C28.6384 8.96991 29.9288 8.60747 31.3518 8.60747C33.6147 8.60747 35.361 9.32714 36.5894 10.7665C37.8289 12.2058 38.448 14.2421 38.448 16.8752V18.376H27.5889C27.7012 19.7435 28.1571 20.8256 28.9558 21.6217C29.7649 22.4184 30.7785 22.8161 31.9971 22.8161C33.7074 22.8161 35.0998 22.1271 36.1747 20.7492L38.1868 22.6627C37.5213 23.6533 36.6305 24.424 35.5145 24.9745C34.4088 25.5165 33.1647 25.7862 31.7822 25.7862ZM31.3368 11.5933C30.3128 11.5933 29.4834 11.9505 28.8487 12.6649C28.2237 13.3794 27.8247 14.3747 27.6503 15.6507H34.7621V15.3751C34.6798 14.1298 34.3474 13.1906 33.7629 12.5578C33.1798 11.9146 32.3706 11.5933 31.3368 11.5933ZM55.3133 17.3657C55.3133 19.9374 54.7354 21.9841 53.5781 23.5051C52.4314 25.0261 50.849 25.7862 48.8317 25.7862C46.8862 25.7862 45.3705 25.0875 44.2857 23.6886L44.1009 25.4806H40.722V1.96191H44.4542V10.5053C45.5298 9.23963 46.9783 8.60681 48.801 8.60681C50.8287 8.60681 52.4209 9.35718 53.5781 10.8573C54.7354 12.358 55.3133 14.4556 55.3133 17.1502V17.3657ZM51.5811 17.0437C51.5811 15.2478 51.2637 13.8999 50.6289 13.0013C49.9941 12.1033 49.0727 11.6546 47.8645 11.6546C46.2462 11.6546 45.1099 12.3586 44.4542 13.7673V20.5957C45.1203 22.0351 46.2671 22.7547 47.8952 22.7547C49.0622 22.7547 49.9634 22.3211 50.5989 21.4532C51.233 20.5859 51.5608 19.2739 51.5811 17.5185V17.0437ZM66.2123 12.3129C65.7095 12.2302 65.2008 12.1892 64.6913 12.1902C62.9816 12.1902 61.8296 12.8432 61.2359 14.15V25.4806H57.5037V8.91375H61.0668L61.1589 10.7665C62.0601 9.32714 63.3094 8.60747 64.9068 8.60747C65.439 8.60747 65.8798 8.6793 66.2279 8.82167L66.2123 12.3129ZM71.9115 25.4806H68.1786V8.91375H71.9115V25.4806ZM67.9487 4.61138C67.9487 4.03996 68.1277 3.56518 68.4862 3.18771C68.8545 2.80959 69.377 2.62085 70.0529 2.62085C70.7288 2.62085 71.2506 2.81024 71.6196 3.18771C71.9879 3.56518 72.1721 4.03996 72.1721 4.61138C72.1721 5.17302 71.9879 5.64257 71.6196 6.02004C71.2506 6.38771 70.7288 6.57122 70.0529 6.57122C69.377 6.57122 68.8545 6.38771 68.4862 6.02004C68.1277 5.64257 67.9487 5.17302 67.9487 4.61138ZM74.6616 17.0744C74.6616 14.5229 75.2552 12.4762 76.4431 10.935C77.631 9.3833 79.2232 8.60747 81.2196 8.60747C82.9809 8.60747 84.4046 9.22004 85.49 10.4445V1.96322H89.2222V25.4813H85.8433L85.6585 23.7663C84.5424 25.1136 83.0527 25.7869 81.1889 25.7869C79.2434 25.7869 77.6663 25.0065 76.4581 23.4444C75.2604 21.8829 74.6616 19.7591 74.6616 17.0744ZM78.3938 17.3964C78.3938 19.08 78.7164 20.3972 79.361 21.3461C80.0167 22.2852 80.9434 22.7547 82.1411 22.7547C83.6673 22.7547 84.7834 22.0755 85.49 20.7185V13.6452C84.8036 12.3182 83.698 11.6546 82.1724 11.6546C80.9636 11.6546 80.0317 12.134 79.3767 13.094C78.721 14.0429 78.3938 15.4777 78.3938 17.3964ZM91.519 17.0744C91.519 14.502 92.1238 12.4507 93.3319 10.9193C94.5505 9.37808 96.1629 8.60747 98.1698 8.60747C100.064 8.60747 101.554 9.26575 102.64 10.583L102.809 8.91375H106.172V24.9751C106.172 27.1492 105.491 28.8641 104.13 30.1193C102.778 31.3751 100.95 32.0027 98.6459 32.0027C97.4279 32.0027 96.2348 31.748 95.0671 31.2373C93.9105 30.7371 93.0296 30.0788 92.4255 29.2618L94.192 27.0264C95.3388 28.3848 96.752 29.0633 98.431 29.0633C99.6699 29.0633 100.648 28.7263 101.365 28.0524C102.082 27.3889 102.44 26.4093 102.44 25.1129V23.9949C101.365 25.1893 99.9311 25.7862 98.1391 25.7862C96.1936 25.7862 94.6015 25.0156 93.3626 23.4744C92.1336 21.9332 91.519 19.7996 91.519 17.0744ZM95.2363 17.3964C95.2363 19.0597 95.5745 20.3717 96.2498 21.3311C96.9362 22.28 97.8831 22.7547 99.0919 22.7547C100.597 22.7547 101.713 22.1121 102.44 20.8256V13.5374C101.734 12.2822 100.627 11.6546 99.1226 11.6546C97.8936 11.6546 96.9362 12.1392 96.2498 13.109C95.5745 14.0788 95.2363 15.5077 95.2363 17.3964ZM116.395 25.7862C114.03 25.7862 112.11 25.0463 110.635 23.5658C109.171 22.0762 108.439 20.0961 108.439 17.6256V17.1665C108.439 15.5129 108.757 14.0383 109.391 12.7413C110.037 11.4352 110.937 10.4191 112.094 9.69481C113.252 8.96991 114.542 8.60747 115.965 8.60747C118.228 8.60747 119.974 9.32714 121.203 10.7665C122.441 12.2058 123.061 14.2421 123.061 16.8752V18.376H112.202C112.314 19.7435 112.77 20.8256 113.569 21.6217C114.378 22.4184 115.392 22.8161 116.61 22.8161C118.32 22.8161 119.713 22.1271 120.788 20.7492L122.8 22.6627C122.135 23.6533 121.244 24.424 120.128 24.9745C119.021 25.5165 117.777 25.7862 116.395 25.7862ZM115.95 11.5933C114.926 11.5933 114.097 11.9505 113.461 12.6649C112.837 13.3794 112.437 14.3747 112.264 15.6507H119.375V15.3751C119.293 14.1298 118.96 13.1906 118.377 12.5578C117.793 11.9146 116.984 11.5933 115.95 11.5933Z" fill="#2D2D2D"/>
<path d="M73.006 4.24607C73.0055 4.63274 72.9291 5.01552 72.7811 5.37255C72.6332 5.72957 72.4166 6.05386 72.1437 6.32688C71.8709 6.5999 71.5471 6.81631 71.1908 6.96374C70.8346 7.11118 70.4529 7.18676 70.0676 7.18615C69.6822 7.18676 69.3005 7.11118 68.9442 6.96376C68.588 6.81633 68.2641 6.59993 67.9912 6.32692C67.7183 6.05391 67.5016 5.72963 67.3536 5.3726C67.2056 5.01556 67.1291 4.63277 67.1285 4.24607C67.1299 3.46522 67.4403 2.71688 67.9914 2.16565C68.5426 1.61442 69.2894 1.30543 70.0676 1.30664C70.4529 1.30604 70.8345 1.3816 71.1907 1.52899C71.5469 1.67639 71.8706 1.89274 72.1435 2.16569C72.4164 2.43864 72.633 2.76285 72.781 3.1198C72.9289 3.47675 73.0054 3.85946 73.006 4.24607Z" fill="#3CBE14"/>
</g>
<defs>
<clipPath id="clip0_411_985">
<rect width="122.122" height="32" fill="white" transform="translate(0.938782)"/>
</clipPath>
</defs>
</svg>
