<svg width="32" height="32" viewBox="0 0 32 32" fill="none" xmlns="http://www.w3.org/2000/svg">
<rect width="32" height="32" rx="16" fill="#3CBE14"/>
<path d="M11.2147 16.2807C11.2147 17.7533 10.0209 18.9471 8.54825 18.9471C7.07562 18.9471 5.88182 17.7533 5.88182 16.2807C5.88182 14.8081 7.07562 13.6143 8.54825 13.6143C10.0209 13.6143 11.2147 14.8081 11.2147 16.2807Z" fill="white"/>
<path opacity="0.5" d="M12.5481 16.2809C12.5481 18.4898 10.7574 20.2805 8.54845 20.2805C6.33951 20.2805 4.54881 18.4898 4.54881 16.2809C4.54881 14.072 6.33951 12.2812 8.54845 12.2812C10.7574 12.2812 12.5481 14.072 12.5481 16.2809Z" fill="white"/>
<path d="M19.9328 16.2816C19.9328 17.4106 19.0175 18.3258 17.8885 18.3258C16.7595 18.3258 15.8442 17.4106 15.8442 16.2816C15.8442 15.1526 16.7595 14.2373 17.8885 14.2373C19.0175 14.2373 19.9328 15.1526 19.9328 16.2816Z" fill="white"/>
<path opacity="0.5" d="M20.955 16.2812C20.955 17.9748 19.5822 19.3476 17.8886 19.3476C16.1951 19.3476 14.8223 17.9748 14.8223 16.2812C14.8223 14.5877 16.1951 13.2148 17.8886 13.2148C19.5822 13.2148 20.955 14.5877 20.955 16.2812Z" fill="white"/>
<path d="M26.7846 16.2805C26.7846 17.0659 26.1479 17.7026 25.3625 17.7026C24.5771 17.7026 23.9404 17.0659 23.9404 16.2805C23.9404 15.4951 24.5771 14.8584 25.3625 14.8584C26.1479 14.8584 26.7846 15.4951 26.7846 16.2805Z" fill="white"/>
<path opacity="0.5" d="M27.4958 16.2806C27.4958 17.4587 26.5407 18.4137 25.3626 18.4137C24.1845 18.4137 23.2295 17.4587 23.2295 16.2806C23.2295 15.1025 24.1845 14.1475 25.3626 14.1475C26.5407 14.1475 27.4958 15.1025 27.4958 16.2806Z" fill="white"/>
</svg>
