<svg width="32" height="32" viewBox="0 0 32 32" fill="none" xmlns="http://www.w3.org/2000/svg">
<rect width="32" height="32" rx="16" fill="#2D2D2D"/>
<path d="M11.2146 16.2807C11.2146 17.7533 10.0208 18.9471 8.54822 18.9471C7.07559 18.9471 5.88179 17.7533 5.88179 16.2807C5.88179 14.8081 7.07559 13.6143 8.54822 13.6143C10.0208 13.6143 11.2146 14.8081 11.2146 16.2807Z" fill="#3CBE14"/>
<path opacity="0.5" d="M12.5479 16.2809C12.5479 18.4898 10.7572 20.2805 8.54824 20.2805C6.3393 20.2805 4.5486 18.4898 4.5486 16.2809C4.5486 14.072 6.3393 12.2812 8.54824 12.2812C10.7572 12.2812 12.5479 14.072 12.5479 16.2809Z" fill="#3CBE14"/>
<path d="M19.9328 16.2816C19.9328 17.4106 19.0175 18.3258 17.8885 18.3258C16.7595 18.3258 15.8442 17.4106 15.8442 16.2816C15.8442 15.1526 16.7595 14.2373 17.8885 14.2373C19.0175 14.2373 19.9328 15.1526 19.9328 16.2816Z" fill="#3CBE14"/>
<path opacity="0.5" d="M20.955 16.2812C20.955 17.9748 19.5821 19.3476 17.8886 19.3476C16.1951 19.3476 14.8222 17.9748 14.8222 16.2812C14.8222 14.5877 16.1951 13.2148 17.8886 13.2148C19.5821 13.2148 20.955 14.5877 20.955 16.2812Z" fill="#3CBE14"/>
<path d="M26.7845 16.2805C26.7845 17.0659 26.1478 17.7026 25.3624 17.7026C24.577 17.7026 23.9403 17.0659 23.9403 16.2805C23.9403 15.4951 24.577 14.8584 25.3624 14.8584C26.1478 14.8584 26.7845 15.4951 26.7845 16.2805Z" fill="#3CBE14"/>
<path opacity="0.5" d="M27.4955 16.2806C27.4955 17.4587 26.5405 18.4137 25.3624 18.4137C24.1843 18.4137 23.2292 17.4587 23.2292 16.2806C23.2292 15.1025 24.1843 14.1475 25.3624 14.1475C26.5405 14.1475 27.4955 15.1025 27.4955 16.2806Z" fill="#3CBE14"/>
</svg>
